<?xml version="1.0" encoding="UTF-8" standalone="no"?>
<!-- Created with Inkscape (http://www.inkscape.org/) -->

<svg
   width="210mm"
   height="297mm"
   viewBox="0 0 210 297"
   version="1.1"
   id="svg5"
   xml:space="preserve"
   xmlns="http://www.w3.org/2000/svg"
   xmlns:svg="http://www.w3.org/2000/svg"><defs
     id="defs2" /><g
     id="layer1"><path
       style="fill:#ffffff;stroke-width:0.29196"
       d="M 94.116435,260.48552 C 63.080926,257.14168 35.231545,240.10363 18.297157,214.09987 15.529522,209.84999 14.577691,208.17851 12.145662,203.29735 0.7992984,180.5249 -1.6498282,153.55271 5.3872725,128.86734 13.922704,98.926001 35.774866,74.147129 64.338198,62.021026 88.117736,51.92579 114.16863,50.979393 138.81394,59.315352 c 25.0768,8.481961 46.7395,27.293369 58.61883,50.903388 2.81239,5.5896 3.50509,7.20411 5.48673,12.78774 3.72348,10.49172 5.43831,20.10557 5.71002,32.01209 0.20899,9.16127 -0.47105,16.53615 -2.28488,24.77604 -8.76478,39.81657 -40.52206,71.08319 -80.37915,79.13733 -9.73313,1.96683 -22.31656,2.58062 -31.849055,1.55358 z m 20.916935,-4.92969 c 22.54714,-2.36804 42.49704,-11.68065 59.03338,-27.55668 2.6846,-2.5774 7.58908,-8.23099 10.23768,-11.80144 7.90754,-10.65971 13.18164,-21.74982 16.50378,-34.70335 3.47879,-13.56437 3.86335,-29.66866 1.04102,-43.596 -5.2242,-25.78017 -20.39192,-48.291062 -42.3338,-62.829074 C 147.1677,66.888019 133.5756,61.7314 118.93304,59.672978 100.17543,57.0361 81.474639,59.717119 64.240159,67.513618 41.642545,77.736441 22.887143,97.267416 13.612522,120.2348 c -9.5514472,23.65292 -9.5796203,50.4848 -0.07769,73.99754 12.745722,31.53959 40.914921,54.40473 74.304472,60.31344 8.201028,1.45128 19.128616,1.85714 27.194066,1.01005 z m -18.727235,-3.9689 C 78.304557,250.02014 60.239981,242.68089 45.651103,231.00687 41.566799,227.73859 34.71944,220.87807 31.39921,216.72751 17.088813,198.83837 9.7581495,176.81689 10.580231,154.18683 11.555419,127.34209 23.104776,103.26964 43.461405,85.65222 58.031777,73.042452 75.092605,65.631097 94.992304,63.266809 c 4.622226,-0.549183 16.547016,-0.469975 21.313086,0.14138 21.80083,2.797193 40.60487,11.967168 55.76432,27.194023 16.05394,16.125288 25.44118,36.482958 27.32869,59.266338 0.45238,5.46102 0.16552,15.43821 -0.59403,20.6488 -1.50316,10.31399 -4.11224,18.83392 -8.61326,28.12659 -3.82684,7.90074 -7.99157,14.20667 -13.70301,20.74789 -16.29928,18.66748 -38.39944,29.97412 -62.95633,32.20906 -3.84351,0.3498 -13.13176,0.34209 -17.225635,-0.0142 z m 9.826505,-5.98646 c 0.35682,-0.53836 0.34309,-0.68964 -0.11106,-1.21385 -0.47156,-0.54444 -0.97609,-0.61671 -5.55062,-0.79518 l -5.031892,-0.19623 -0.342778,0.75209 c -0.286203,0.62789 -0.257249,0.84656 0.175105,1.32412 0.585125,0.64656 2.045943,0.80022 7.276975,0.76532 2.89385,-0.0208 3.21296,-0.076 3.58427,-0.63612 z m 12.75214,-0.22484 c 2.56127,-0.44632 3.28242,-0.93054 3.00891,-2.02039 -0.22451,-0.8941 -0.91459,-1.08831 -2.68928,-0.75677 -0.75934,0.14175 -2.57625,0.39365 -4.03756,0.5596 -1.46133,0.16588 -2.94874,0.36484 -3.30544,0.44203 -0.86001,0.18621 -1.24893,0.97328 -0.9164,1.8549 0.25967,0.68875 0.30553,0.69662 2.95806,0.50936 1.48186,-0.10451 3.72363,-0.36951 4.98171,-0.58873 z m -28.407366,-1.0777 c 0.424709,-0.79361 -0.336888,-2.02198 -1.25805,-2.02929 -0.357594,-0.003 -2.472514,-0.4468 -4.699842,-0.98664 -3.963012,-0.96047 -4.061405,-0.96975 -4.598362,-0.43281 -1.297792,1.29784 -0.455099,1.95536 3.830696,2.98897 4.174399,1.00674 4.094102,0.99119 5.317985,1.0294 0.818919,0.0241 1.163721,-0.11411 1.407573,-0.56963 z m 41.629606,-2.0496 c 4.37881,-1.38982 5.07347,-1.76562 5.07347,-2.74461 0,-1.2902 -0.95387,-1.47127 -3.31656,-0.62954 -1.1466,0.4085 -3.23384,1.08556 -4.63835,1.50458 -2.81082,0.83866 -3.40758,1.3824 -2.67116,2.43383 0.60809,0.86818 1.2427,0.8037 5.5526,-0.56426 z m -56.988832,-1.89314 c 1.048439,-1.04844 0.44811,-1.64662 -3.190697,-3.17917 -1.445205,-0.60866 -3.267589,-1.4289 -4.04973,-1.82273 -1.520677,-0.7657 -2.61432,-0.72912 -2.931729,0.0979 -0.48219,1.25656 0.204078,1.7323 6.105571,4.23239 2.948885,1.24926 3.412287,1.32575 4.066585,0.67147 z m 71.173212,-3.9936 c 1.91436,-1.00361 3.89545,-2.16849 4.4025,-2.58864 0.84246,-0.69812 0.89171,-0.83016 0.57158,-1.53278 -0.2145,-0.47094 -0.58511,-0.76889 -0.95613,-0.76889 -0.33312,0 -2.15859,0.854 -4.05643,1.89774 -1.89784,1.04372 -3.59877,1.89772 -3.77983,1.89772 -0.46842,0 -1.4971,1.08901 -1.4971,1.58492 0,0.5554 0.80356,1.33469 1.3762,1.33469 0.25208,0 2.02486,-0.82112 3.93921,-1.82476 z m -46.312414,-2.22928 c 1.845554,-1.12545 2.479534,-4.32844 1.217484,-6.15095 -0.73047,-1.05486 -1.231782,-1.37752 -4.077749,-2.62464 -2.220286,-0.97296 -2.710565,-1.786 -1.85989,-3.08431 0.988917,-1.50927 4.276499,-0.56077 4.775439,1.37782 0.19,0.73788 0.42355,0.98085 1.00992,1.05012 0.72652,0.0859 0.77235,0.0103 0.96166,-1.60575 0.34595,-2.9512 0.36415,-2.85474 -0.55875,-2.96013 -0.46429,-0.053 -0.9379,0.0552 -1.05238,0.24035 -0.14832,0.24 -0.493425,0.16304 -1.199542,-0.2676 -2.087279,-1.27249 -5.114988,-0.47141 -5.972177,1.58015 -1.142928,2.73536 0.01774,4.84518 3.39192,6.1624 2.211467,0.8635 2.902759,1.48727 2.902759,2.61925 0,2.22729 -2.632789,2.99561 -4.356923,1.27149 -0.494076,-0.49409 -0.912327,-1.11817 -0.929394,-1.38684 -0.01774,-0.26863 -0.05003,-0.75122 -0.07309,-1.07235 -0.03105,-0.42737 -0.28379,-0.60754 -0.943606,-0.67192 l -0.901665,-0.0879 -0.311394,2.56926 c -0.171382,1.41305 -0.250685,2.66792 -0.175816,2.78857 0.267928,0.43348 1.852862,0.23759 1.852862,-0.22897 0,-0.35119 0.236544,-0.28794 1.089635,0.29207 1.379721,0.93754 3.837899,1.02711 5.210863,0.19 z m 17.129294,-0.077 c 1.04285,-0.22346 1.38681,-0.42981 1.38681,-0.83274 0,-1.10626 -0.31035,-1.44123 -1.1749,-1.26831 -0.77523,0.15523 -0.84307,0.0913 -1.02615,-0.96145 -0.10782,-0.62013 -0.30619,-1.64947 -0.44087,-2.2874 -0.13447,-0.63794 -0.2193,-1.18098 -0.18827,-1.20672 0.0311,-0.0241 0.45071,-0.12649 0.93243,-0.2238 0.84298,-0.17031 0.95271,-0.0617 2.91961,2.89108 1.92532,2.89036 2.09236,3.05933 2.8831,2.9166 0.46167,-0.0833 1.05288,-0.15346 1.31382,-0.15595 0.8837,-0.007 1.24805,-0.44959 1.04365,-1.264 -0.15969,-0.63611 -0.36153,-0.77524 -1.12497,-0.77524 -0.82795,0 -1.0982,-0.24138 -2.45343,-2.19073 l -1.52302,-2.19077 0.92418,-0.82577 c 0.77933,-0.69632 0.94198,-1.07375 1.03765,-2.4076 0.1272,-1.77422 -0.23518,-2.68399 -1.41944,-3.56301 -0.96747,-0.71816 -2.85355,-0.73797 -6.52073,-0.0687 -3.70759,0.6768 -3.56683,0.61029 -3.41931,1.6153 0.11248,0.76682 0.24483,0.87235 1.09357,0.87235 0.81709,0 0.99187,0.12349 1.1369,0.80292 0.33242,1.55725 1.62431,8.98247 1.62554,9.34269 6e-4,0.2007 -0.31932,0.36493 -0.71141,0.36493 -0.8902,0 -1.11111,0.34139 -0.8623,1.33275 0.18793,0.74833 0.24724,0.76872 1.68773,0.57808 0.82114,-0.10862 2.11706,-0.33103 2.87981,-0.49445 z m -1.82476,-8.77038 c 0,-0.0713 -0.1414,-0.89526 -0.31451,-1.83094 -0.37951,-2.0531 -0.2462,-2.19059 2.12898,-2.19698 1.85577,-0.003 2.27297,0.36442 2.27297,2.01255 0,0.68372 -0.19414,0.98793 -0.84524,1.32462 -0.83212,0.43032 -3.2422,0.94378 -3.2422,0.69075 z m -54.158552,7.32218 c 0,-0.5596 -0.74735,-1.19878 -3.941455,-3.37101 -2.167799,-1.47427 -4.23244,-2.69121 -4.588093,-2.70439 -0.738803,-0.0275 -1.368451,0.91298 -1.115499,1.66589 0.191454,0.56988 2.73039,2.43572 6.119589,4.49723 2.093933,1.27369 2.371282,1.36913 2.919595,1.00509 0.333251,-0.22138 0.605863,-0.71305 0.605863,-1.09281 z m 27.120825,-2.47129 c 0.444046,-1.5373 0.735429,-2.9825 0.647539,-3.21155 -0.088,-0.22897 -0.479599,-0.41649 -0.870458,-0.41649 -0.626888,0 -0.784679,0.24379 -1.339005,2.06883 -0.394707,1.29943 -0.758138,2.01991 -0.977314,1.93737 -0.191889,-0.0724 -1.104359,-0.35003 -2.027686,-0.61718 -0.923326,-0.26723 -1.678768,-0.59958 -1.678768,-0.73875 0,-0.24966 0.225278,-1.02002 2.043192,-6.98868 l 0.921234,-3.02456 0.862757,0.17244 c 0.732769,0.14655 0.905356,0.0603 1.145431,-0.57089 0.421301,-1.10814 0.367847,-1.22444 -0.666203,-1.44956 -0.521878,-0.11353 -1.728372,-0.45473 -2.681115,-0.75804 -1.849688,-0.58885 -2.062867,-0.52926 -2.355954,0.65845 -0.165349,0.67005 -0.08392,0.78295 0.673903,0.93451 l 0.86196,0.17243 -1.522202,5.05065 -1.522201,5.0507 h -0.973659 c -0.814875,0 -1.009071,0.1311 -1.190829,0.80287 -0.1194,0.4416 -0.195687,0.81025 -0.16943,0.81923 1.929666,0.66028 9.233642,2.8603 9.554991,2.87805 0.332187,0.0177 0.67635,-0.73593 1.263799,-2.76989 z m 70.221777,-1.4872 c 5.19745,-3.88138 6.25822,-5.13452 5.2229,-6.16989 -0.63875,-0.63873 -1.32847,-0.36695 -3.37079,1.32846 -1.11226,0.92332 -2.83213,2.30269 -3.82192,3.06527 -1.90377,1.4667 -2.33395,2.50669 -1.28872,3.11547 0.79536,0.46323 0.90535,0.41804 3.25853,-1.33931 z m -22.94524,0.35861 c 4.78789,-2.32555 5.42,-8.96024 1.20695,-12.66868 -2.32225,-2.04415 -5.42697,-2.31883 -8.33281,-0.7373 -1.71503,0.93347 -2.96496,2.50415 -3.49272,4.38913 -0.83757,2.9915 0.99012,7.17162 3.87124,8.85385 1.39761,0.81603 1.7388,0.89241 3.58818,0.80328 1.20956,-0.0581 2.49896,-0.31967 3.15916,-0.64028 z m -4.40205,-1.57968 c -2.09698,-0.60414 -3.86718,-3.33044 -3.86532,-5.95283 0.002,-2.76481 1.78186,-4.59838 4.46582,-4.60047 1.68306,-10e-4 2.73242,0.49766 3.94066,1.87376 2.36424,2.69273 1.81927,6.79989 -1.09744,8.27071 -1.30375,0.65743 -2.20821,0.76481 -3.44372,0.40883 z m -56.717633,-0.50793 c 0.0035,-0.17492 -0.339143,-0.47556 -0.761562,-0.66805 -0.713537,-0.32517 -0.75498,-0.44531 -0.583919,-1.69339 0.101303,-0.7389 0.184137,-1.98203 0.184137,-2.76249 v -1.41904 h 1.036358 c 1.53453,0 2.620758,-0.69764 3.313148,-2.1279 0.89549,-1.84986 0.797114,-2.66733 -0.481039,-3.997 -0.964947,-1.00385 -6.596064,-4.38565 -7.302681,-4.38565 -0.147076,0 -0.427778,0.35174 -0.623642,0.78161 -0.285883,0.62743 -0.280739,0.82735 0.02626,1.01356 0.210235,0.12757 0.5627,0.35197 0.78326,0.49875 0.318155,0.21172 -0.127559,1.24058 -2.156647,4.97901 -2.549812,4.69776 -2.559747,4.71086 -3.237357,4.26693 -0.89464,-0.58623 -0.906065,-0.58291 -1.418931,0.40883 l -0.441756,0.85426 2.528272,1.37817 2.528292,1.37817 0.533605,-0.65899 c 0.56623,-0.69928 0.687156,-1.1782 0.29745,-1.1782 -0.129866,0 -0.47513,-0.17475 -0.767203,-0.38833 -0.502451,-0.36737 -0.469683,-0.49945 0.608171,-2.45134 l 1.13922,-2.06305 0.814236,0.42663 0.814235,0.42663 -0.172622,2.38968 c -0.09492,1.31429 -0.232836,2.98088 -0.306426,3.70349 -0.133061,1.30732 -0.127028,1.31764 1.249073,2.08848 l 1.382845,0.77468 0.504437,-0.62869 c 0.277455,-0.34579 0.507365,-0.77182 0.510932,-0.94676 z m -2.548145,-9.23909 c -0.682453,-0.34677 -1.239192,-0.70312 -1.237187,-0.79191 0.0018,-0.0889 0.43278,-0.91475 0.957249,-1.83541 l 0.953592,-1.67393 1.536714,0.94405 c 1.801432,1.10667 2.153472,1.94089 1.302316,3.08617 -0.742365,0.99884 -1.903886,1.08847 -3.512684,0.27103 z m -23.559199,6.3613 c 0.284661,-0.43445 0.373073,-0.86991 0.225695,-1.11171 -0.133237,-0.21862 -1.791832,-1.89125 -3.685746,-3.71697 -3.227091,-3.11088 -3.493124,-3.3021 -4.233414,-3.04283 -1.427922,0.5001 -1.186185,1.37487 1.013657,3.66815 2.444286,2.54813 5.236888,4.91755 5.795788,4.91755 0.228832,0 0.626637,-0.32139 0.884013,-0.71419 z m 101.877407,-3.4851 c 3.17302,-1.50003 4.73544,-4.60405 4.0479,-8.04174 -0.17175,-0.8595 -0.26314,-0.92116 -1.24083,-0.8394 l -1.05529,0.0883 0.10035,1.79582 c 0.11868,2.12149 -0.41288,3.47892 -1.74876,4.46659 -3.3066,2.44465 -8.22339,-0.63111 -8.24887,-5.1601 -0.0102,-1.63175 0.50357,-2.60905 1.92597,-3.67101 0.96697,-0.72195 3.17097,-0.97354 4.32834,-0.49416 0.80266,0.33241 0.96191,0.30381 1.58808,-0.28414 l 0.69599,-0.65384 -1.31741,-1.79502 c -0.72452,-0.98722 -1.40417,-1.82471 -1.51027,-1.86107 -0.10623,-0.0362 -0.51796,0.18346 -0.91529,0.4886 -0.71035,0.54543 -0.71326,0.56474 -0.17385,1.16094 0.54597,0.60327 0.54339,0.60623 -0.52784,0.60623 -2.3906,0 -4.87726,1.67994 -5.94773,4.01815 -0.60085,1.31241 -0.70496,1.8973 -0.58102,3.26394 0.50094,5.52464 5.96468,9.09406 10.58033,6.91207 z m 18.77942,-1.20296 c 0.47776,-0.40204 1.99876,-2.02855 3.37994,-3.61448 2.77594,-3.18743 3.12688,-4.1454 1.74866,-4.77337 -0.70584,-0.32174 -0.83831,-0.26139 -1.77862,0.80916 -0.55878,0.63616 -2.05497,2.29598 -3.32481,3.68848 -2.39746,2.62901 -2.84336,3.6969 -1.79792,4.30581 0.72115,0.42005 0.80224,0.40101 1.77275,-0.4156 z m -109.599674,-0.6432 c 0.55956,-0.76696 0.559187,-0.77453 -0.05837,-1.18454 -0.606096,-0.40244 -0.537666,-0.51721 2.76033,-4.63019 3.300675,-4.11631 3.395592,-4.20511 3.954672,-3.69915 0.551576,0.49915 0.593446,0.49291 1.128896,-0.16836 0.305823,-0.3777 0.556064,-0.79225 0.556064,-0.92122 0,-0.12898 -0.860665,-0.9193 -1.912581,-1.75634 l -1.91258,-1.52191 -0.734507,0.69001 -0.734488,0.69005 0.625629,0.5066 c 0.733016,0.59357 1.028159,0.0907 -3.00988,5.12843 -1.573598,1.96317 -3.025365,3.56937 -3.226162,3.56937 -0.200798,0 -0.517494,-0.1524 -0.703777,-0.33862 -0.25697,-0.25692 -0.480089,-0.1689 -0.92456,0.36494 -0.322214,0.387 -0.585587,0.76934 -0.585257,0.84963 5.87e-4,0.1673 3.845951,3.18196 4.067416,3.18875 0.08019,0.002 0.39939,-0.34277 0.709135,-0.76743 z m -22.080598,-5.69129 c 0.613574,-0.61354 0.379808,-1.70461 -0.633775,-2.95802 -0.541266,-0.66936 -1.795829,-2.36656 -2.787913,-3.77162 -0.992089,-1.40507 -1.961592,-2.57024 -2.154447,-2.58926 -1.082408,-0.1068 -1.651282,0.31655 -1.659999,1.23581 -0.0045,0.46946 4.082268,6.528 5.245921,7.77705 0.674987,0.7245 1.45224,0.84403 1.990213,0.30622 z m 125.000972,-3.07016 c 1.59089,-1.86716 1.7063,-2.41059 0.6339,-2.9845 -0.47515,-0.25414 -0.66389,-0.1969 -1.01918,0.31035 -0.42746,0.61032 -0.51267,0.55763 -4.32368,-2.67225 -2.13821,-1.8122 -4.00931,-3.40259 -4.1581,-3.53425 -0.16108,-0.14246 -0.0724,-0.45839 0.21899,-0.78019 0.63966,-0.70684 0.60728,-0.98002 -0.18414,-1.55398 -0.64095,-0.46482 -0.69584,-0.42768 -2.50398,1.6939 -1.78908,2.09923 -1.83212,2.18755 -1.33401,2.73793 0.65519,0.72399 1.16045,0.72085 1.67263,-0.0103 0.38639,-0.55163 0.60339,-0.41122 4.56248,2.95192 l 4.1568,3.53107 -0.62226,0.6624 -0.62228,0.66235 0.79774,0.62749 c 0.43876,0.34511 0.88354,0.52518 0.9884,0.40017 0.10486,-0.12526 0.88639,-1.04397 1.73678,-2.04211 z m -107.372663,0.31863 c 0.75138,-0.37529 1.451772,-0.82091 1.556426,-0.99027 0.211385,-0.34206 -2.736395,-4.03815 -3.242273,-4.06538 -0.175835,-0.0102 -0.550077,0.23724 -0.83165,0.5485 -0.490768,0.54228 -0.480215,0.60729 0.255075,1.57131 0.871101,1.14209 0.673276,1.36649 -1.204576,1.36649 -2.035528,0 -4.157602,-1.83907 -4.604023,-3.98999 -0.432173,-2.08232 1.236718,-4.99225 3.471294,-6.05261 1.525626,-0.72395 3.620772,-0.60871 4.914384,0.27034 1.749501,1.18882 2.664271,3.73137 1.982385,5.50995 -0.280006,0.73031 -0.237178,0.94009 0.311148,1.52371 l 0.635828,0.67685 1.052449,-0.86399 c 0.578844,-0.47514 1.441851,-1.18819 1.917761,-1.58447 l 0.865295,-0.72051 -0.696806,-0.74173 c -0.634446,-0.67532 -0.741426,-0.70133 -1.195231,-0.29069 -0.459729,0.41603 -0.514319,0.36611 -0.703778,-0.64378 -0.651726,-3.47404 -3.634802,-6.04129 -7.017697,-6.0395 -3.692976,0.002 -7.324152,3.10919 -7.909216,6.76796 -0.556366,3.47931 2.394606,7.68884 5.940614,8.47421 1.45955,0.32311 2.850406,0.099 4.502591,-0.7264 z m 123.666293,-2.6863 c 0.65532,-0.41609 5.03564,-7.99111 5.03564,-8.7083 0,-0.45876 -0.24689,-0.81041 -0.72124,-1.02643 -0.85686,-0.39042 -1.4029,-0.0435 -2.11239,1.3417 -0.25276,0.49346 -1.29513,2.23184 -2.31643,3.86315 -1.02133,1.63128 -1.85695,3.21444 -1.85695,3.5181 0,1.0291 1.07508,1.58088 1.97137,1.01178 z m -11.92454,-2.83842 1.80863,-2.20364 -0.67211,-0.56025 c -0.84132,-0.70143 -0.98617,-0.70618 -1.45839,-0.0479 -0.34623,0.48271 -0.69885,0.51418 -3.81236,0.34035 -1.88695,-0.10554 -3.52356,-0.2845 -3.63687,-0.39764 -0.11342,-0.11341 -0.43032,-1.54741 -0.7045,-3.18689 -0.43272,-2.58746 -0.44404,-3.06627 -0.0856,-3.62755 0.53193,-0.83304 0.53694,-0.81071 -0.30416,-1.36186 -0.71036,-0.46547 -0.73386,-0.45001 -2.48166,1.62638 l -1.76452,2.09626 0.6344,0.67528 c 0.56873,0.60539 0.68443,0.63002 1.11784,0.23792 0.26587,-0.24069 0.55649,-0.43747 0.64578,-0.43747 0.0892,0 0.2531,0.75546 0.36428,1.67875 0.27931,2.32228 0.77515,4.26543 1.15347,4.52092 0.17476,0.11798 1.10592,0.22794 2.06938,0.24449 0.96348,0.0177 2.39707,0.11727 3.18572,0.22346 1.281,0.1728 1.38117,0.2369 0.93913,0.60213 -0.46091,0.3808 -0.45067,0.45574 0.14974,1.09486 0.35448,0.37735 0.73424,0.68609 0.8439,0.68609 0.10965,0 1.01323,-0.99166 2.00797,-2.20364 z M 28.696581,199.77278 c 0.25235,-0.25243 0.458794,-0.56243 0.458794,-0.68905 0,-0.19553 -3.365752,-7.47283 -4.060184,-8.7788 -0.559062,-1.0514 -2.363142,-0.52249 -2.362712,0.69264 2.12e-4,0.59775 3.500442,8.08902 4.139043,8.85849 0.42409,0.51101 1.269345,0.47241 1.825059,-0.0833 z m 157.609939,-6.18329 c 0.8809,-0.98011 3.68844,-8.60168 3.49525,-9.4885 -0.11833,-0.54309 -1.26236,-0.96761 -1.92372,-0.71386 -0.21826,0.0837 -0.62548,0.85337 -0.90505,1.71028 -0.27965,0.85693 -1.02101,2.85296 -1.64766,4.43564 -1.27557,3.22176 -1.36446,3.82328 -0.62838,4.25201 0.73305,0.42694 1.08888,0.38371 1.60956,-0.1955 z M 42.807017,190.48077 c 2.527715,-1.18789 6.500882,-3.07914 8.829263,-4.20275 16.065912,-7.75298 22.597842,-10.86304 22.815049,-10.86304 0.359936,0 0.320673,-0.1382 -0.372691,-1.31358 -0.342353,-0.58024 -0.769332,-0.99288 -0.948857,-0.91695 -0.356156,0.15064 -8.89592,4.22602 -24.935036,11.89951 -5.666424,2.71095 -10.527552,4.92701 -10.802514,4.92452 -0.745272,-0.007 -1.158208,-0.35308 -1.503514,-1.2613 -0.533298,-1.40267 -0.388188,-2.75737 0.346682,-3.23653 0.361301,-0.23551 3.875767,-1.96202 7.809926,-3.83651 3.93416,-1.87452 8.926671,-4.25468 11.094473,-5.28921 2.167798,-1.03458 6.740718,-3.21424 10.162017,-4.84372 6.010994,-2.86288 6.214291,-2.98769 6.034448,-3.70427 -0.102365,-0.40792 -0.239667,-0.79514 -0.305044,-0.86053 -0.111239,-0.11103 -1.611492,0.57661 -10.490151,4.80933 -1.926933,0.91861 -8.430343,4.01729 -14.452015,6.88593 -11.571632,5.51256 -12.347806,6.00239 -12.728664,8.03249 -0.377219,2.01081 0.880944,5.06473 2.327189,5.64873 1.41177,0.57009 2.571833,0.26519 7.119448,-1.87212 z m 130.084763,1.8202 c 2.01429,-1.07282 2.96703,-4.88476 1.7493,-6.9988 -0.44065,-0.76491 -1.73156,-1.50351 -7.82664,-4.47798 -4.01446,-1.95912 -7.75884,-3.77497 -8.32086,-4.03525 -0.56202,-0.26035 -4.04364,-1.91269 -7.73694,-3.672 l -6.71508,-3.19879 -0.39114,0.73687 c -0.21517,0.40534 -0.28068,0.83489 -0.14584,0.95461 0.13485,0.11957 5.10628,2.52656 11.04768,5.34849 19.92487,9.46357 18.19836,8.55465 18.41195,9.69309 0.1304,0.69443 0.0208,1.33964 -0.35332,2.10824 -0.48118,0.98503 -0.65408,1.10313 -1.56288,1.06771 -0.63984,-0.0241 -3.31397,-1.15339 -7.15306,-3.01846 -3.37212,-1.63829 -9.61277,-4.62425 -13.86806,-6.63548 -4.25532,-2.01129 -9.49327,-4.50226 -11.63988,-5.53557 -2.14659,-1.03329 -3.93638,-1.83949 -3.97733,-1.79152 -0.25414,0.29795 -1.04991,2.05684 -0.96774,2.13902 0.0548,0.0548 1.34557,0.68482 2.86816,1.39985 1.52255,0.71498 5.26455,2.51033 8.31551,3.98963 6.23472,3.02295 23.47174,11.25647 24.81659,11.85396 1.09372,0.48594 2.61337,0.51781 3.44974,0.0724 z m -62.57002,-3.60431 c 4.34912,-0.62483 8.99969,-2.30733 11.96879,-4.32998 6.96231,-4.74305 13.49592,-17.09245 13.4633,-25.44744 -0.0142,-3.22289 -0.52704,-5.24103 -2.25239,-8.83589 -1.17044,-2.43868 -1.7312,-3.18515 -4.67073,-6.21755 -2.68749,-2.77236 -3.51593,-3.83535 -4.23717,-5.4368 -0.49308,-1.09488 -1.04878,-2.31314 -1.23482,-2.70729 -0.508,-1.0762 -3.11755,-3.58548 -4.68253,-4.50264 -1.17346,-0.68768 -1.45262,-0.75149 -1.84933,-0.42298 -0.63752,0.52798 -2.41924,4.30099 -2.41924,5.12307 0,0.92561 0.84117,0.85857 1.78583,-0.14208 0.69567,-0.73707 3.76898,-2.02538 3.75583,-1.57441 -0.003,0.10554 -0.86498,0.6947 -1.91535,1.309 -1.05041,0.61429 -1.97232,1.27986 -2.04873,1.47899 -0.0766,0.19931 0.0548,0.73558 0.29172,1.192 0.3574,0.68883 0.36797,0.98321 0.0625,1.73254 -0.32172,0.78913 -0.56058,0.93341 -1.89705,1.14672 -1.1817,0.18863 -1.75046,0.13892 -2.50451,-0.21897 -1.32965,-0.63097 -1.99818,-0.58317 -3.19398,0.22827 -0.91197,0.61889 -6.00877,2.77155 -7.69307,3.24922 -1.35795,0.3851 -0.56906,-0.36535 2.04372,-1.94415 1.77411,-1.07203 3.14104,-1.68686 3.98432,-1.7921 1.37627,-0.17173 2.56603,-1.07247 2.26226,-1.71273 -0.10166,-0.21413 -0.34907,-0.61918 -0.55002,-0.90019 -0.52279,-0.73122 0.007,-1.43989 1.46157,-1.95415 1.76717,-0.62483 2.06604,-1.27871 4.32078,-9.45335 0.39071,-1.41665 0.71042,-2.80864 0.71042,-3.09333 0,-0.68906 0.81987,-1.39394 1.89776,-1.6316 1.61315,-0.35566 1.8108,-0.49866 1.02185,-0.73935 -1.46762,-0.44771 -2.8605,-0.30381 -3.65267,0.37769 -0.62311,0.53601 -0.81254,1.03654 -1.01746,2.68901 -0.13857,1.11677 -0.18965,2.1312 -0.11331,2.2543 0.0764,0.1231 -0.001,0.74256 -0.17209,1.3765 -0.30622,1.13655 -0.32344,1.14847 -1.25392,0.85287 -0.51893,-0.16483 -2.45438,-0.68851 -4.30105,-1.16363 -3.16886,-0.81528 -3.61184,-0.85708 -7.882915,-0.74418 -4.102189,0.10862 -4.784749,0.20483 -7.299008,1.03243 -7.845584,2.58208 -14.604992,8.59048 -17.969181,15.97272 -1.86122,4.08417 -2.649288,9.03492 -2.385937,14.98869 0.467395,10.56683 5.436088,19.02632 14.8079,25.21122 7.362381,4.8588 13.670751,6.14154 23.358341,4.74968 z m 0.92853,-38.48522 c 1.17292,-3.70145 1.40276,-4.7613 1.35928,-6.26804 -0.0241,-0.85016 0.10714,-1.69757 0.29277,-1.88315 0.25517,-0.25518 0.33828,-0.16305 0.34104,0.37787 0.002,0.39344 0.18654,1.40304 0.4103,2.24356 l 0.40688,1.52831 -1.35919,2.76602 c -1.6068,3.26996 -2.27634,3.84004 -1.45098,1.23543 z m 11.50272,-1.44561 c -1.58403,-3.37116 -3.0801,-5.294 -5.24098,-6.73597 -1.31533,-0.87774 -0.70532,-0.84121 1.32494,0.0793 1.48231,0.67213 2.14807,1.19607 3.06396,2.41125 0.6436,0.85389 1.32389,1.84115 1.51175,2.19389 0.39607,0.7437 1.27233,5.09041 1.06747,5.29527 -0.0759,0.076 -0.85315,-1.38374 -1.72714,-3.24379 z m -15.64436,-11.79597 c -0.24069,-0.0838 -1.24865,-0.46751 -2.23949,-0.85283 -1.4961,-0.58177 -2.32532,-0.70053 -4.890336,-0.70053 -1.69883,0 -3.088789,-0.11034 -3.088789,-0.24553 0,-0.3741 3.138685,-0.99515 5.109305,-1.01094 1.99114,-0.0172 3.21466,0.472 4.96331,1.97951 1.10461,0.95222 1.1442,1.17742 0.14583,0.83032 z m 2.33507,-4.39997 c -0.52614,-1.08392 -1.15645,-2.20146 -1.40074,-2.48346 -0.24414,-0.28208 -0.38229,-0.5746 -0.30657,-0.6502 0.28347,-0.28345 1.44338,0.80234 1.96444,1.83911 0.51162,1.01802 1.07513,3.26527 0.81878,3.26527 -0.0655,0 -0.54961,-0.88684 -1.07577,-1.97072 z m -86.734251,52.52259 c 0.212177,-0.39646 0.06789,-1.31459 -0.539042,-3.43056 -0.455812,-1.58904 -0.999413,-3.65714 -1.208,-4.59576 -0.446996,-2.01141 -1.269835,-2.79563 -2.335125,-2.22552 -0.561047,0.30034 -0.620159,0.51133 -0.475996,1.69951 0.236385,1.9485 2.202672,8.59377 2.621572,8.85998 0.636357,0.40442 1.640909,0.24483 1.936591,-0.3076 z m 168.583631,-6.3155 c 0.45224,-0.45223 0.78446,-1.7539 1.51116,-5.9213 0.63867,-3.66225 0.58852,-4.38896 -0.33173,-4.80823 -0.66767,-0.30415 -0.82861,-0.26863 -1.27397,0.28138 -0.28034,0.34624 -0.60018,1.32689 -0.71066,2.17922 -0.11034,0.85232 -0.45687,2.78588 -0.76973,4.2968 -0.68606,3.31303 -0.68764,3.36953 -0.11,3.94708 0.5751,0.57511 1.12672,0.58332 1.68493,0.0241 z M 19.031222,169.92493 c 0.412705,-0.45605 0.438745,-0.85887 0.193454,-2.99261 -0.155893,-1.35607 -0.286384,-3.31958 -0.289972,-4.36337 -0.0034,-1.04374 -0.172109,-2.22618 -0.374472,-2.62765 -0.446344,-0.88539 -1.419498,-1.0818 -2.081227,-0.42007 -0.411047,0.41105 -0.458079,0.87943 -0.302041,3.00815 0.415081,5.66309 0.648649,7.15109 1.183939,7.54251 0.702495,0.51367 1.104471,0.47833 1.670345,-0.14689 z M 142.60123,167.3863 c 2.17866,-4.56397 3.08179,-10.9834 2.50319,-17.79305 -0.43146,-5.07825 -1.06597,-7.51497 -2.53147,-9.72223 -3.49432,-5.26279 -7.85701,-7.40235 -15.07892,-7.39501 l -3.70128,0.003 -0.82408,-1.04481 c -0.45326,-0.57467 -1.43318,-1.65468 -2.17761,-2.40001 -0.74442,-0.74537 -1.58789,-1.72749 -1.87435,-2.18252 l -0.52087,-0.82741 -0.35624,0.66564 c -0.33415,0.62415 -0.12312,0.89406 3.38403,4.33087 2.69159,2.63762 3.96188,4.11551 4.53072,5.27105 1.23067,2.49997 1.71217,3.04184 4.69498,5.28376 4.9992,3.75753 6.33205,5.45125 7.88744,10.02342 1.25068,3.67633 2.12525,10.32444 2.15352,16.37048 0.0102,2.44802 0.0438,2.58772 0.47381,2.04369 0.25379,-0.32103 0.90053,-1.50357 1.43713,-2.62763 z m -4.25289,0.74017 c 0,-0.89419 -1.00125,-1.77173 -1.45833,-1.27816 -0.61311,0.66219 -0.58286,1.47217 0.0666,1.78528 1.09209,0.52642 1.39163,0.41724 1.39163,-0.50712 z m 55.46211,-5.24633 c 0.17245,-0.32209 0.30206,-2.5782 0.30206,-5.24857 0,-4.63947 -0.007,-4.68822 -0.71031,-5.14922 -0.54518,-0.35727 -0.84743,-0.39205 -1.30019,-0.14974 -0.5497,0.29414 -0.59585,0.64535 -0.6765,5.1507 -0.0475,2.65926 0.007,5.08847 0.12313,5.39827 0.28689,0.77136 1.84875,0.77035 2.26182,-0.001 z M 18.482288,154.03717 c 0.265247,-0.37867 0.45432,-1.26011 0.454073,-2.11671 -2.33e-4,-0.80729 0.151938,-2.8745 0.33818,-4.59377 0.361521,-3.33741 0.201142,-4.02706 -0.93658,-4.02706 -1.280559,0 -1.501828,0.78886 -2.006395,7.15302 -0.181591,2.29039 -0.144591,3.06114 0.171736,3.57652 0.514117,0.83757 1.39542,0.84115 1.978977,0.007 z m 174.944672,-7.09795 c 0.34876,-0.90883 -1.39533,-9.72126 -1.99986,-10.1047 -1.17433,-0.74489 -2.13625,0.1272 -1.90093,1.72354 0.37277,2.52875 1.40144,8.26638 1.55275,8.66066 0.32828,0.85564 1.98827,0.65804 2.34804,-0.27967 z m -121.401254,-3.33613 0.301692,-0.86546 -15.402691,-7.62939 -15.402696,-7.62943 0.311248,-0.99437 c 0.171185,-0.5469 0.400856,-0.99437 0.510396,-0.99437 0.10955,0 4.051698,1.66349 8.760346,3.69664 24.481191,10.57065 23.106118,10.02271 23.55263,9.38521 0.225598,-0.32208 0.292394,-0.68387 0.151334,-0.81929 -0.231861,-0.22242 -13.675563,-5.95733 -27.049679,-11.53895 -5.467106,-2.28167 -5.485538,-2.29243 -6.030858,-3.52521 -0.692014,-1.56444 -1.71368,-2.23452 -3.621096,-2.37505 -1.842005,-0.13586 -3.250754,0.5133 -4.200705,1.93528 -1.219523,1.82553 -0.721424,4.0844 1.303548,5.9116 1.44015,1.29948 2.529044,1.57558 4.091316,1.03734 1.175833,-0.40512 1.196358,-0.39943 4.20409,1.16801 1.66237,0.86633 7.817931,4.02433 13.679021,7.01776 5.861097,2.99345 11.444828,5.86195 12.408302,6.37441 0.963459,0.51249 1.837357,0.88205 1.941978,0.82126 0.104673,-0.0607 0.325961,-0.50002 0.491913,-0.97599 z m -35.91621,-17.80528 c -0.998033,-0.99801 -1.139814,-1.30054 -1.060501,-2.26267 0.0793,-0.96198 0.241937,-1.18409 1.214925,-1.65924 0.969371,-0.47338 1.28265,-0.50087 2.285315,-0.20035 0.895793,0.26828 1.25708,0.57581 1.57726,1.34214 0.609804,1.45944 0.514988,2.12579 -0.438109,3.07888 -1.201645,1.20169 -2.158447,1.12182 -3.57889,-0.29862 z M 155.10751,135.449 c 4.99361,-2.5515 9.91598,-5.0959 10.93863,-5.65421 1.83193,-1.00021 1.87931,-1.00914 3.21158,-0.60553 1.58768,0.481 2.45432,0.32311 3.78574,-0.69015 1.44774,-1.10175 2.08965,-2.33991 2.08965,-4.03088 0,-2.81936 -1.86373,-4.41733 -4.86193,-4.1687 -1.77823,0.14758 -3.06197,1.10356 -3.6444,2.71423 -0.30864,0.85374 -0.78568,1.10467 -7.07874,3.72417 -9.61173,4.00087 -18.11228,7.59122 -18.26387,7.71401 -0.0713,0.0579 0.12898,0.36373 0.44494,0.67982 0.57162,0.57163 0.63632,0.54815 12.10011,-4.39023 6.33898,-2.73075 11.74097,-5.03372 12.00446,-5.11775 0.3414,-0.10898 0.57257,0.11551 0.8042,0.77998 0.17897,0.513 0.29172,0.96263 0.25068,0.99912 -0.0407,0.0366 -5.00113,2.52594 -11.02279,5.53217 -6.02167,3.00619 -10.98625,5.50002 -11.03244,5.5418 -0.18069,0.16339 0.6326,1.6112 0.90517,1.6112 0.15932,0 4.37523,-2.08756 9.36884,-4.63905 z m 13.70188,-9.25122 c -0.6489,-0.64891 -0.73159,-0.93381 -0.60278,-2.07643 0.19863,-1.76209 0.93574,-2.47277 2.5908,-2.49779 1.60388,-0.0241 2.52322,0.44873 2.76802,1.42409 0.39796,1.58555 -1.57842,3.89828 -3.33372,3.90115 -0.36863,5.5e-4 -1.00864,-0.33726 -1.42232,-0.75102 z M 20.881673,137.57729 c 2.205007,-7.40425 2.429594,-8.3393 2.135164,-8.88945 -0.418363,-0.78171 -1.625678,-0.7331 -2.155089,0.0869 -0.597586,0.92546 -2.508887,7.66289 -2.508887,8.84393 0,1.95067 1.945062,1.91894 2.528812,-0.0413 z m 168.951267,-5.6866 c 0.50511,-0.72108 0.39735,-1.19678 -1.29875,-5.73219 -1.42959,-3.8226 -1.81939,-4.46391 -2.71334,-4.46391 -1.32262,0 -1.52208,0.71188 -0.76203,2.71953 0.37602,0.99323 1.10577,3.02127 1.6217,4.50675 0.51589,1.48551 1.10147,2.89785 1.30123,3.13858 0.5138,0.61912 1.35295,0.5426 1.85119,-0.16864 z M 27.325251,119.65089 c 1.161228,-2.32839 2.113747,-4.52444 2.116706,-4.88006 0.0073,-0.86856 -0.959436,-1.3803 -1.778935,-0.94175 -0.374016,0.20036 -1.420789,1.99521 -2.661548,4.5641 -1.79953,3.72576 -2.005659,4.32068 -1.716739,4.95479 0.252799,0.5548 0.512506,0.69943 1.128761,0.62846 0.71421,-0.0821 1.027827,-0.54812 2.911755,-4.32554 z M 160.2322,117.44016 c 1.69094,-0.92033 3.47361,-2.77078 4.25436,-4.41608 0.27794,-0.58587 0.57098,-1.88094 0.65098,-2.87793 0.35722,-4.45009 -3.4879,-8.59679 -7.97154,-8.59679 -2.27808,0 -3.39945,0.37998 -5.31364,1.80041 -1.74674,1.29624 -3.1056,3.43115 -3.60727,5.66753 -0.77757,3.46641 1.86976,7.68881 5.72312,9.12808 1.53509,0.5734 4.53537,0.23552 6.26399,-0.70522 z m -5.97206,-1.90672 c -2.53994,-0.78099 -4.19142,-4.01237 -3.35141,-6.55759 0.42271,-1.28079 2.34426,-3.47217 3.62824,-4.13766 2.32056,-1.20282 4.56102,-0.9863 6.2541,0.60435 1.93046,1.81366 2.28739,4.04467 1.04579,6.5363 -0.86375,1.73328 -2.2684,2.91006 -4.14929,3.47615 -1.49949,0.45128 -2.16529,0.46652 -3.42743,0.0786 z m 29.46712,1.9069 c 0.25241,-0.25242 0.4588,-0.60243 0.4588,-0.77799 0,-0.41376 -2.07112,-4.1837 -3.66153,-6.6649 -1.33427,-2.08158 -1.89614,-2.48814 -2.78274,-2.01366 -0.80434,0.43047 -0.70254,1.57566 0.2669,3.00166 0.45625,0.67126 1.39193,2.20584 2.07924,3.41018 1.90905,3.34498 2.02778,3.50351 2.62429,3.50351 0.30588,0 0.76279,-0.20656 1.01514,-0.4588 z M 58.441956,116.63318 c 3.766774,-2.20746 5.347628,-6.8572 3.589787,-10.55842 -0.877465,-1.84755 -3.118295,-4.02273 -4.945416,-4.80057 -5.175661,-2.20336 -11.289241,1.83723 -11.289241,7.46132 0,2.96888 1.441472,5.50028 4.205715,7.3857 1.796318,1.22519 2.741752,1.4845 5.033144,1.3804 1.615398,-0.0734 2.383598,-0.26931 3.406011,-0.86843 z m -5.783817,-2.05914 c -2.864726,-1.25148 -4.927646,-4.76482 -4.228705,-7.20191 1.415337,-4.935 7.43831,-5.4598 10.624933,-0.92578 1.861752,2.64896 1.186288,6.28375 -1.455424,7.83189 -1.360586,0.79736 -3.499541,0.92543 -4.940804,0.29587 z m -19.873088,-4.72572 c 0.252902,-0.25276 0.876717,-1.07403 1.386255,-1.82473 0.509535,-0.7507 1.710862,-2.38694 2.669619,-3.63606 1.578174,-2.05616 1.712075,-2.33944 1.414477,-2.99258 -0.479728,-1.05289 -1.54787,-0.94092 -2.614691,0.27414 -1.75503,1.99886 -5.025537,6.82644 -5.025537,7.41819 0,1.0705 1.377332,1.55361 2.169877,0.76104 z m 36.704292,-3.06133 c 1.340974,-0.83513 2.483796,-1.55783 2.539573,-1.60604 0.1359,-0.11725 -0.914562,-1.88235 -1.113246,-1.87055 -0.08587,0.003 -0.411047,0.20207 -0.722762,0.43794 -0.311697,0.23586 -0.65939,0.42866 -0.772668,0.42866 -0.207094,0 -2.89401,-4.16367 -2.89401,-4.484606 0,-0.09448 0.393483,-0.375215 0.874413,-0.623908 0.872091,-0.450975 0.883694,-0.445976 4.336502,1.867244 l 3.462085,2.31946 1.283723,-0.85157 c 0.706051,-0.46839 1.404684,-0.8925 1.552522,-0.9425 0.267237,-0.0903 -0.683358,-1.955454 -0.996669,-1.955454 -0.0903,0 -0.460706,0.207591 -0.823266,0.461698 -0.626587,0.438906 -0.763443,0.396496 -2.765582,-0.856912 -3.451618,-2.160768 -3.282117,-1.963868 -2.684787,-3.118995 1.04803,-2.026694 0.279371,-4.634228 -1.726687,-5.857495 -1.641903,-1.001225 -3.458468,-0.536493 -7.183603,1.837657 -0.883178,0.562875 -2.166069,1.374408 -2.850847,1.803382 l -1.245047,0.77998 0.449671,0.86957 c 0.520564,1.00664 0.757073,1.054331 1.809468,0.3648 0.426039,-0.279315 0.816968,-0.377041 0.874645,-0.218969 0.05731,0.157239 1.476198,2.453564 3.152944,5.103098 2.987312,4.72048 3.036952,4.82717 2.468699,5.30525 -0.318971,0.26828 -0.731952,0.53859 -0.917792,0.60052 -0.230867,0.0769 -0.162333,0.40974 0.216249,1.05065 0.304777,0.51594 0.708071,0.87899 0.896217,0.80677 0.188146,-0.0721 1.43928,-0.81457 2.780255,-1.64968 z M 64.117567,95.978664 c -0.602174,-0.972846 -1.093838,-1.858208 -1.092614,-1.967521 0.0035,-0.265868 2.294622,-1.604445 3.200082,-1.869278 0.924427,-0.270351 1.846957,0.322421 2.334842,1.500237 0.315067,0.760634 0.300377,1.00526 -0.09669,1.611307 -0.382626,0.583977 -2.816498,2.509015 -3.157361,2.497256 -0.05127,-0.0017 -0.586049,-0.799153 -1.188222,-1.772001 z m 79.915763,8.950526 c 2.66019,-1.11151 5.13216,-4.70658 5.35506,-7.788054 0.15861,-2.19525 -0.61093,-3.834455 -2.68942,-5.727527 -1.44534,-1.316372 -7.19294,-5.046134 -7.77616,-5.046134 -0.14796,0 -0.49108,0.338971 -0.76246,0.753049 -0.48155,0.734912 -0.47311,0.769222 0.34987,1.425441 l 0.84326,0.672393 -2.45502,4.048806 c -1.35027,2.226838 -2.75726,4.536295 -3.12662,5.132136 l -0.67155,1.083331 -0.88889,-0.499423 c -0.87211,-0.489976 -0.89964,-0.485629 -1.45692,0.230349 -0.31243,0.401456 -0.57095,0.812083 -0.5745,0.912503 -0.0103,0.2969 6.33992,4.07677 7.82478,4.6574 1.65655,0.64777 4.65345,0.72015 6.02857,0.14551 z m -6.12293,-2.62085 c -2.94295,-1.40137 -2.98692,-0.87791 0.56289,-6.702855 l 3.13981,-5.152171 0.88185,0.511699 c 2.53329,1.47003 4.32342,3.758454 4.31739,5.519181 -0.003,1.085641 -1.28216,3.819696 -2.27825,4.872276 -1.7341,1.83241 -4.06967,2.16804 -6.62369,0.95187 z m 37.27488,1.96938 c 0.29381,-0.26586 0.53391,-0.6549 0.53391,-0.86477 0,-0.72653 -6.34696,-7.994745 -6.98137,-7.994745 -0.70424,0 -1.48545,0.61553 -1.48545,1.170402 0,0.705567 6.35892,8.172333 6.9598,8.172333 0.24138,0 0.67945,-0.21759 0.97311,-0.48322 z M 88.204243,97.922635 c 1.886802,-0.592392 3.430507,-1.149955 3.430507,-1.238991 0,-0.08897 -0.467306,-1.658963 -1.038504,-3.488689 -1.027113,-3.290309 -1.047108,-3.324721 -1.824761,-3.141684 -0.432409,0.101726 -0.883179,0.271731 -1.001673,0.377422 -0.118511,0.105861 0.105735,1.233231 0.498193,2.505394 0.39249,1.272129 0.686535,2.332426 0.653394,2.356151 -0.03442,0.02412 -1.085181,0.383455 -2.337875,0.799429 -1.721383,0.571564 -2.312131,0.66629 -2.41897,0.387871 -0.0777,-0.202763 -0.905887,-2.790607 -1.84032,-5.751149 -1.811296,-5.738805 -1.798397,-5.446487 -0.261719,-5.929083 0.430279,-0.135171 0.454869,-0.29173 0.175638,-1.119264 -0.178583,-0.52915 -0.360858,-1.006779 -0.405033,-1.0614 -0.066,-0.08174 -5.879336,1.692102 -6.212232,1.895554 -0.05606,0.03448 0.05429,0.536114 0.245362,1.11509 0.355499,1.07723 0.43466,1.098644 1.95342,0.528564 0.223345,-0.0838 0.870849,1.551168 1.83695,4.638437 0.820622,2.622362 1.617915,5.069687 1.771787,5.438556 0.458026,1.098022 0.327663,1.462131 -0.596126,1.665033 -0.978184,0.214831 -1.002382,0.280005 -0.568111,1.525617 l 0.307775,0.882877 2.100888,-0.654321 c 1.155507,-0.359903 3.644643,-1.139022 5.531428,-1.731414 z m 39.645067,0.342076 c 0.17931,-0.682461 0.84757,-3.080166 1.48514,-5.328244 0.63753,-2.248114 1.3566,-4.787612 1.59789,-5.643387 l 0.43874,-1.555928 1.11754,0.188623 c 1.06113,0.179315 1.13412,0.141044 1.44623,-0.754083 0.1807,-0.518595 0.29138,-0.980054 0.24622,-1.025467 -0.20484,-0.204832 -6.31733,-1.696621 -6.43485,-1.570412 -0.0727,0.07793 -0.2221,0.561251 -0.33175,1.073849 -0.19035,0.888811 -0.15133,0.941053 0.84178,1.127368 0.57273,0.107242 1.04133,0.260004 1.04133,0.339316 0,0.41349 -2.42435,9.019282 -2.59154,9.199321 -0.10817,0.116205 -0.88028,-2.760331 -1.71594,-6.392644 -0.83569,-3.632349 -1.5677,-6.652547 -1.62671,-6.711547 -0.30724,-0.307248 -5.04299,-1.501547 -5.22636,-1.318164 -0.11834,0.118281 -0.29623,0.620736 -0.3953,1.116746 -0.16997,0.850845 -0.121,0.912983 0.87044,1.098953 0.5779,0.10827 1.05074,0.267247 1.05074,0.352628 0,0.08552 -0.53185,2.017419 -1.18192,4.293153 -0.65006,2.275735 -1.37933,4.83789 -1.62064,5.693632 l -0.43875,1.555925 -1.12514,-0.190003 c -1.08011,-0.182419 -1.13325,-0.153445 -1.32674,0.727635 -0.11103,0.504734 -0.13856,0.980607 -0.0618,1.057469 0.0769,0.0769 1.47772,0.512666 3.11295,0.968468 l 2.9732,0.828742 0.27243,-0.716396 c 0.4598,-1.209367 0.32378,-1.518201 -0.75833,-1.721171 -0.76488,-0.143456 -0.99689,-0.316214 -0.89965,-0.67015 0.0721,-0.26242 0.75932,-2.758988 1.52713,-5.548319 l 1.39608,-5.071514 0.50632,2.297909 c 1.70861,7.75443 2.91799,12.815254 3.10406,12.98936 0.11797,0.11035 0.47685,0.263454 0.79801,0.340697 1.38368,0.332765 1.57818,0.22759 1.90925,-1.032642 z M 45.261755,95.053164 c 1.76588,-1.645928 3.397021,-3.097648 3.624767,-3.226063 0.63281,-0.356803 0.519507,-1.879245 -0.16721,-2.24677 -0.855922,-0.458077 -1.760253,0.136554 -4.998083,3.286134 -3.325956,3.23534 -3.616087,3.674935 -3.003012,4.550229 0.242349,0.345973 0.641365,0.629048 0.886729,0.629048 0.245349,0 1.890923,-1.346649 3.6568,-2.992578 z m 54.409646,0.658978 1.175549,-0.0019 -0.11408,-1.196093 c -0.10787,-1.132505 -0.15896,-1.189506 -0.956577,-1.072399 -0.979667,0.143792 -0.989763,0.09139 -0.383869,-1.992973 l 0.458674,-1.577754 h 2.830332 2.83037 l 0.50646,1.425994 c 0.68038,1.915624 0.65022,2.077523 -0.38704,2.077523 -0.84469,0 -0.88853,0.05621 -0.80288,1.027951 0.0496,0.565355 0.18931,1.025194 0.30966,1.021849 0.12028,-0.0034 1.53279,-0.007 3.13855,-0.007 h 2.91961 v -1.167815 c 0,-1.128678 -0.0311,-1.167852 -0.97211,-1.167852 h -0.97218 l -2.23942,-5.785459 c -1.23169,-3.182029 -2.23942,-5.875358 -2.23942,-5.985188 0,-0.109664 0.39413,-0.199659 0.87587,-0.199659 0.80641,0 0.87587,-0.08104 0.87587,-1.021881 v -1.021909 h -4.23338 -4.233426 v 1.16785 c 0,1.102954 0.04862,1.167816 0.875867,1.167816 0.481752,0 0.87589,0.148282 0.87589,0.329661 0,0.266558 -1.767972,6.23778 -3.252065,10.983736 -0.25897,0.82788 -0.42414,0.948847 -1.295965,0.948847 -0.937804,0 -0.999224,0.05967 -0.999224,0.973192 0,0.535287 0.09864,1.075057 0.218981,1.199542 0.120286,0.12449 1.072939,0.147234 2.11673,0.05069 1.043736,-0.09655 2.426742,-0.17656 3.073304,-0.17759 z m 1.646169,-10.877559 c 0.47225,-1.645931 0.89433,-3.12051 0.93794,-3.27686 0.0779,-0.27966 1.74732,4.112084 2.10551,5.539179 0.18241,0.726911 0.17386,0.730255 -1.85938,0.730255 h -2.04268 z m 63.01519,7.955881 c 1.09134,-1.091297 0.93117,-1.30375 -3.94146,-5.227277 -3.10291,-2.498567 -4.21311,-2.908713 -4.81732,-1.779758 -0.37601,0.7026 -0.0344,1.470513 0.937,2.107525 0.36785,0.241038 2.03395,1.573548 3.7025,2.96092 1.66855,1.387407 3.14657,2.522532 3.28455,2.522532 0.13785,0 0.51359,-0.262764 0.83473,-0.583942 z M 56.015677,86.254162 c 1.043754,-0.705325 2.85026,-1.88721 4.014442,-2.626397 1.62739,-1.033332 2.116712,-1.499685 2.116712,-2.017454 0,-0.789361 -0.502877,-1.374097 -1.181676,-1.374097 -0.539991,0 -4.872168,2.650225 -7.212166,4.412055 -1.521117,1.145297 -1.855785,1.863244 -1.182439,2.536567 0.619658,0.619666 1.504658,0.380593 3.445127,-0.930674 z m 96.066093,-3.119476 c 0.24758,-0.462526 0.22759,-0.750116 -0.0852,-1.220886 -0.5097,-0.767637 -8.00371,-4.889166 -8.88979,-4.889166 -0.73985,0 -1.36772,0.943639 -1.12431,1.689791 0.0895,0.274834 1.30273,1.091126 2.69561,1.813727 1.39284,0.7226 3.19897,1.737446 4.01352,2.255218 1.73698,1.104089 2.92147,1.226851 3.39004,0.351316 z M 69.089206,78.824498 c 0.918732,-0.45532 2.787189,-1.26475 4.152097,-1.798726 1.364908,-0.533976 2.652533,-1.102711 2.861367,-1.263853 0.508677,-0.392491 0.326492,-1.667308 -0.293761,-2.055592 -0.584024,-0.365628 -1.127741,-0.193797 -6.1597,1.948244 -3.753805,1.597862 -4.333023,2.130492 -3.57492,3.287479 0.594864,0.907881 0.975841,0.893019 3.014935,-0.117588 z m 68.847134,-2.820953 c 0.30139,-1.200471 -0.0142,-1.493652 -2.60537,-2.431738 -4.39649,-1.59086 -6.91568,-2.233011 -7.44893,-1.898866 -0.58249,0.365007 -0.79732,1.503961 -0.36518,1.936073 0.42814,0.428181 8.45041,3.05813 9.43912,3.094476 0.61874,0.02414 0.83833,-0.134143 0.98036,-0.699945 z M 86.3795,73.085866 c 2.007229,-0.430663 3.977949,-0.94026 4.379381,-1.132436 0.982157,-0.470216 1.099746,-1.484996 0.236899,-2.044042 -0.6048,-0.391869 -0.962465,-0.379144 -3.448408,0.12277 -3.569332,0.720463 -6.180635,1.429926 -6.642086,1.804588 -0.971494,0.788809 -0.03371,2.415221 1.240825,2.15256 0.321153,-0.06622 2.226194,-0.472664 4.233425,-0.903294 z m 36.20303,-1.024434 c 0.72016,-0.720187 0.73022,-1.021538 0.0565,-1.69531 -0.38484,-0.3848 -1.54947,-0.66584 -4.30644,-1.039227 -2.07842,-0.281386 -4.193,-0.573218 -4.69913,-0.648254 -1.42139,-0.210693 -2.32451,1.019502 -1.5943,2.171802 0.15133,0.238969 1.21554,0.500974 2.69612,0.663839 1.34531,0.147927 3.43138,0.448804 4.63571,0.668497 1.20434,0.21966 2.28822,0.413629 2.40868,0.430975 0.1203,0.01721 0.48173,-0.23104 0.80287,-0.552322 z m -15.5608,-1.508822 c 0.52609,-0.436632 0.47313,-1.27482 -0.11799,-1.865865 -0.44467,-0.44463 -0.98504,-0.474908 -5.14917,-0.288282 -2.558845,0.114485 -4.832672,0.277591 -5.052983,0.362144 -0.596124,0.228626 -0.816328,1.480031 -0.357699,2.032593 0.349201,0.420801 0.968567,0.45263 5.346942,0.274833 2.7976,-0.113456 5.11677,-0.337939 5.33083,-0.515459 z"
       id="path299" /></g></svg>
